<?xml version="1.0" encoding="utf-8"?>
<!-- Generator: Adobe Illustrator 16.0.0, SVG Export Plug-In . SVG Version: 6.00 Build 0)  -->
<!DOCTYPE svg PUBLIC "-//W3C//DTD SVG 1.1//EN" "http://www.w3.org/Graphics/SVG/1.1/DTD/svg11.dtd">
<svg version="1.1" id="Layer_1" xmlns="http://www.w3.org/2000/svg" xmlns:xlink="http://www.w3.org/1999/xlink" x="0px" y="0px"
	 width="297.45px" height="419.877px" viewBox="700.55 145.838 297.45 419.877"
	 enable-background="new 700.55 145.838 297.45 419.877" xml:space="preserve">
<g>
	<g>
		<polygon fill="#151515" points="933.643,161.385 908.954,161.385 934.629,189.244 934.629,202.504 881.746,202.504 
			881.746,186.979 907.416,186.979 881.746,159.119 881.746,145.838 933.643,145.838 		"/>
		<polygon fill="#151515" points="871.265,161.385 846.576,161.385 872.25,189.244 872.25,202.504 819.367,202.504 819.367,186.979 
			845.039,186.979 819.367,159.119 819.367,145.838 871.265,145.838 		"/>
		<polygon fill="#151515" points="809.496,162.016 782.855,162.016 782.855,186.329 809.496,186.329 809.496,202.504 
			763.923,202.504 763.923,145.838 809.496,145.838 		"/>
	</g>
	<polygon fill="#1673B6" points="727.62,531.994 700.55,228.374 998,228.374 970.903,531.945 849.093,565.715 	"/>
	<polygon fill="#35A9DB" points="849.276,539.904 947.703,512.615 970.86,253.2 849.276,253.2 	"/>
	<g>
		<polygon fill="#FFFFFF" points="849.275,363.2 898.551,363.2 901.953,325.068 849.275,325.068 849.275,287.829 849.404,287.829 
			942.65,287.829 941.758,297.82 932.605,400.436 849.275,400.436 		"/>
		<polygon fill="#EBEBEB" points="849.498,459.907 849.336,459.954 807.863,448.754 805.212,419.057 785.061,419.057 
			767.832,419.057 773.049,477.525 849.326,498.701 849.498,498.652 		"/>
		<polygon fill="#FFFFFF" points="895.386,398.859 890.901,448.729 849.369,459.94 849.369,498.682 925.709,477.525 926.27,471.234 
			932.746,398.859 		"/>
		<polygon fill="#EBEBEB" points="849.404,287.829 849.404,310.957 849.404,324.976 849.404,325.068 759.576,325.068 
			759.576,325.068 759.457,325.068 758.711,316.698 757.014,297.82 756.123,287.829 		"/>
		<polygon fill="#EBEBEB" points="849.275,363.204 849.275,386.333 849.275,400.35 849.275,400.441 808.447,400.441 
			808.447,400.441 808.328,400.441 807.582,392.073 805.885,373.195 804.994,363.204 		"/>
	</g>
</g>
</svg>
