<?xml version="1.0" encoding="utf-8"?>
<!-- Generator: Adobe Illustrator 16.0.0, SVG Export Plug-In . SVG Version: 6.00 Build 0)  -->
<!DOCTYPE svg PUBLIC "-//W3C//DTD SVG 1.1//EN" "http://www.w3.org/Graphics/SVG/1.1/DTD/svg11.dtd">
<svg version="1.1" id="Layer_1" xmlns="http://www.w3.org/2000/svg" xmlns:xlink="http://www.w3.org/1999/xlink" x="0px" y="0px"
	 width="975.765px" height="1075.282px" viewBox="472.053 2.225 975.765 1075.282"
	 enable-background="new 472.053 2.225 975.765 1075.282" xml:space="preserve">
<g>
	<path fill="#7219B2" d="M915.85,13.694c26.654-15.25,61.387-15.336,88.041,0c134.007,75.729,268.1,151.33,402.106,227.103
		c25.186,14.213,42.076,42.25,41.817,71.28v455.63c0.173,30.24-18.316,58.968-44.928,72.835
		c-133.574,75.298-267.105,150.726-400.637,226.022c-27.217,15.553-62.641,14.343-88.992-2.462
		c-40.047-23.198-80.18-46.311-120.226-69.509c-8.165-4.882-17.41-8.77-23.198-16.719c5.098-6.868,14.256-7.732,21.686-10.757
		c16.719-5.313,32.055-13.867,47.434-22.118c3.889-2.678,8.641-1.642,12.355,0.734c34.258,19.656,68.17,39.83,102.557,59.271
		c7.345,4.233,14.731-1.383,21.039-4.882c131.068-74.088,262.354-147.873,393.379-222.005c4.838-2.333,7.561-7.474,7.128-12.83
		c0.087-150.293,0.043-300.629,0.043-450.922c0.562-6.048-2.938-11.577-8.38-14.04c-133.187-74.909-266.242-149.99-399.342-224.985
		c-4.709-3.24-10.93-3.24-15.682-0.043C818.952,150.336,685.939,225.504,552.84,300.456c-5.443,2.462-9.072,7.948-8.424,13.997
		c0.043,150.293,0,300.629,0,450.965c-0.476,5.313,2.419,10.367,7.258,12.657c35.51,20.131,71.063,40.133,106.617,60.221
		c20.002,10.757,44.626,17.193,66.658,8.942c19.482-6.998,33.091-26.827,32.745-47.52c0.173-149.429-0.087-298.857,0.13-448.287
		c-0.476-6.652,5.789-12.096,12.269-11.491c17.063-0.129,34.171-0.216,51.235,0.044c7.128-0.173,12.01,6.998,11.146,13.65
		c-0.087,150.38,0.173,300.759-0.13,451.095c0.043,40.09-16.416,83.679-53.481,103.291c-45.662,23.674-102.125,18.62-147.226-4.061
		c-39.053-19.483-76.334-42.509-114.696-63.374c-26.654-13.781-45.101-42.639-44.885-72.835V312.12
		c-0.259-29.635,17.237-58.19,43.243-72.188C648.787,164.549,782.318,89.122,915.85,13.694z"/>
	<path fill="#7219B2" d="M1032.403,329.313c58.233-3.759,120.614-2.203,173.016,26.481c40.565,21.989,63.072,68.127,63.807,113.228
		c-1.123,6.091-7.474,9.418-13.306,9.028c-16.892-0.043-33.826,0.217-50.717-0.129c-7.171,0.259-11.318-6.351-12.226-12.658
		c-4.839-21.557-16.632-42.94-36.937-53.352c-31.189-15.596-67.305-14.817-101.304-14.516c-24.797,1.296-51.494,3.456-72.532,18.058
		c-16.157,11.06-21.039,33.351-15.293,51.322c5.443,12.916,20.304,17.063,32.529,20.908c70.2,18.36,144.591,16.546,213.451,40.694
		c28.512,9.85,56.376,28.987,66.14,58.839c12.743,40.003,7.171,87.825-21.298,119.923c-23.069,26.438-56.679,40.824-90.245,48.644
		c-44.626,9.936-90.893,10.195-136.21,5.788c-42.595-4.838-86.918-16.026-119.793-45.058
		c-28.123-24.407-41.861-62.467-40.479-99.187c0.346-6.221,6.48-10.541,12.441-10.022c17.021-0.13,34.042-0.173,51.062,0.043
		c6.782-0.476,11.837,5.4,12.183,11.794c3.153,20.562,10.886,42.12,28.771,54.302c34.604,22.335,77.977,20.779,117.591,21.428
		c32.832-1.469,69.639-1.901,96.423-23.587c14.126-12.355,18.316-33.049,14.515-50.89c-4.147-15.034-19.872-22.032-33.351-26.611
		c-69.292-21.902-144.504-13.954-213.148-38.751c-27.864-9.85-54.82-28.469-65.491-57.066
		c-14.947-40.522-8.078-90.634,23.371-121.651C946.047,345.471,990.283,333.591,1032.403,329.313L1032.403,329.313z"/>
</g>
</svg>
