<?xml version="1.0" encoding="utf-8"?>
<!-- Generator: Adobe Illustrator 16.0.0, SVG Export Plug-In . SVG Version: 6.00 Build 0)  -->
<!DOCTYPE svg PUBLIC "-//W3C//DTD SVG 1.1//EN" "http://www.w3.org/Graphics/SVG/1.1/DTD/svg11.dtd">
<svg version="1.1" id="Layer_1" xmlns="http://www.w3.org/2000/svg" xmlns:xlink="http://www.w3.org/1999/xlink" x="0px" y="0px"
	 width="128.946px" height="145.364px" viewBox="255.703 277.292 128.946 145.364"
	 enable-background="new 255.703 277.292 128.946 145.364" xml:space="preserve">
<path fill="#6D0AA0" d="M320.201,422.656c-1.946,0-3.88-0.511-5.586-1.493l-17.783-10.528c-2.656-1.485-1.36-2.011-0.484-2.313
	c3.542-1.239,4.26-1.52,8.04-3.666c0.397-0.228,0.917-0.147,1.324,0.093l13.661,8.106c0.494,0.267,1.193,0.267,1.65,0l53.268-30.746
	c0.492-0.28,0.812-0.854,0.812-1.44v-61.466c0-0.613-0.32-1.16-0.824-1.467l-53.244-30.72c-0.494-0.294-1.147-0.294-1.641,0
	l-53.234,30.72c-0.516,0.293-0.844,0.866-0.844,1.453v61.467c0,0.586,0.32,1.146,0.826,1.427l14.587,8.426
	c7.92,3.961,12.76-0.706,12.76-5.399v-60.667c0-0.866,0.68-1.533,1.547-1.533h6.747c0.84,0,1.533,0.667,1.533,1.533v60.693
	c0,10.561-5.76,16.627-15.773,16.627c-3.08,0-5.507,0-12.28-3.333l-13.973-8.054c-3.457-2.018-5.584-5.718-5.587-9.72v-61.467
	c0-4,2.133-7.733,5.587-9.707l53.32-30.76c3.373-1.906,7.854-1.906,11.199,0l53.254,30.773c3.457,2.011,5.584,5.708,5.586,9.707
	v61.466c0,3.987-2.146,7.707-5.586,9.707l-53.254,30.76c-1.707,0.983-3.643,1.498-5.613,1.493"/>
<path fill="#6D0AA0" d="M336.654,380.302c-23.306,0-28.193-10.699-28.193-19.672c0-0.854,0.688-1.533,1.542-1.533h6.88
	c0.76,0,1.4,0.553,1.52,1.304c1.04,7.011,4.133,10.547,18.227,10.547c11.227,0,16-2.536,16-8.489c0-3.427-1.36-5.974-18.801-7.681
	c-14.586-1.439-23.6-4.653-23.6-16.319c0-10.747,9.067-17.147,24.254-17.147c17.053,0,25.506,5.921,26.572,18.641
	c0.071,0.854-0.564,1.604-1.418,1.675c-0.043,0.003-0.086,0.005-0.128,0.005h-6.92c-0.72,0-1.347-0.507-1.493-1.2
	c-1.667-7.373-5.693-9.733-16.641-9.733c-12.253,0-13.68,4.268-13.68,7.467c0,3.88,1.68,5.014,18.213,7.2
	c16.373,2.174,24.146,5.24,24.146,16.747c0,11.6-9.68,18.253-26.56,18.253"/>
</svg>
