<?xml version="1.0" encoding="utf-8"?>
<!-- Generator: Adobe Illustrator 16.0.0, SVG Export Plug-In . SVG Version: 6.00 Build 0)  -->
<!DOCTYPE svg PUBLIC "-//W3C//DTD SVG 1.1//EN" "http://www.w3.org/Graphics/SVG/1.1/DTD/svg11.dtd">
<svg version="1.1" id="Layer_1" xmlns:sketch="http://www.bohemiancoding.com/sketch/ns"
	 xmlns="http://www.w3.org/2000/svg" xmlns:xlink="http://www.w3.org/1999/xlink" x="0px" y="0px" width="1080px" height="1080px"
	 viewBox="0 0 1080 1080" enable-background="new 0 0 1080 1080" xml:space="preserve">
<title>react-logo</title>
<desc>Created with Sketch.</desc>
<path fill="#DD4D35" d="M1040.791,493.691L586.533,39.463c-26.158-26.166-68.575-26.173-94.741-0.015
	c-0.005,0.005-0.01,0.01-0.015,0.015l-94.326,94.336l119.658,119.648c28.693-9.758,60.438-2.362,81.865,19.072
	c21.545,21.574,28.886,53.553,18.906,82.363l115.303,115.322c27.9-9.609,60.098-3.389,82.373,18.926
	c31.134,31.114,31.149,81.575,0.035,112.709c-0.012,0.012-0.023,0.023-0.035,0.035c-31.121,31.149-81.601,31.174-112.75,0.053
	c-22.783-22.762-29.635-56.995-17.367-86.771L577.9,407.617l-0.01,283.008c7.796,3.854,14.916,8.947,21.084,15.078
	c31.139,31.132,31.145,81.611,0.014,112.75c-0.005,0.005-0.01,0.009-0.014,0.014c-31.152,31.152-81.641,31.152-112.744,0
	c-31.146-31.124-31.165-81.604-0.041-112.75c7.472-7.478,16.355-13.395,26.135-17.406V402.666
	c-9.776-3.992-18.65-9.911-26.094-17.402c-23.594-23.564-29.268-58.184-17.178-87.158L351.104,180.137L39.639,491.582
	c-26.174,26.173-26.175,68.608-0.002,94.783c0.001,0,0.001,0.001,0.002,0.002l454.258,454.238c26.168,26.161,68.588,26.161,94.756,0
	l452.139-452.119C1066.956,562.305,1066.956,519.873,1040.791,493.691"/>
</svg>
