<?xml version="1.0" encoding="utf-8"?>
<!-- Generator: Adobe Illustrator 16.0.0, SVG Export Plug-In . SVG Version: 6.00 Build 0)  -->
<!DOCTYPE svg PUBLIC "-//W3C//DTD SVG 1.1//EN" "http://www.w3.org/Graphics/SVG/1.1/DTD/svg11.dtd">
<svg version="1.1" id="Layer_1" xmlns="http://www.w3.org/2000/svg" xmlns:xlink="http://www.w3.org/1999/xlink" x="0px" y="0px"
	 width="297.45px" height="419.853px" viewBox="26 145.838 297.45 419.853" enable-background="new 26 145.838 297.45 419.853"
	 xml:space="preserve">
<g>
	<polygon fill="#E45126" points="53.07,531.97 26,228.35 323.45,228.35 296.352,531.921 174.543,565.69 	"/>
	<polygon fill="#F1682B" points="174.725,539.878 273.152,512.591 296.31,253.175 174.725,253.175 	"/>
	<polygon fill="#EBEBEB" points="174.725,365.784 125.45,365.784 122.046,327.652 174.725,327.652 174.725,290.413 174.596,290.413 
		81.35,290.413 82.242,300.404 91.394,403.02 174.725,403.02 	"/>
	<polygon fill="#EBEBEB" points="174.725,462.491 174.562,462.538 133.09,451.338 130.438,421.641 110.287,421.641 93.058,421.641 
		98.275,480.108 174.553,501.284 174.725,501.235 	"/>
	<g>
		<path fill="#020202" d="M53.675,145.838h18.924v18.696H89.91v-18.696h18.925v56.618H89.911v-18.958h-17.31v18.958H53.675V145.838
			L53.675,145.838z"/>
		<path fill="#020202" d="M133.719,164.614h-16.66v-18.775h52.252v18.775h-16.667v37.843H133.72L133.719,164.614L133.719,164.614z"
			/>
		<path fill="#020202" d="M177.604,145.838h19.733l12.137,19.894l12.127-19.894h19.739v56.618h-18.846v-28.063l-13.021,20.13h-0.325
			l-13.028-20.13v28.063h-18.517L177.604,145.838L177.604,145.838z"/>
		<path fill="#020202" d="M250.758,145.838h18.929v37.903h26.612v18.714h-45.542L250.758,145.838L250.758,145.838z"/>
	</g>
	<polygon fill="#FFFFFF" points="174.596,365.784 174.596,403.02 220.45,403.02 216.128,451.312 174.596,462.524 174.596,501.267 
		250.936,480.108 251.495,473.817 260.246,375.783 261.154,365.784 251.12,365.784 	"/>
	<polygon fill="#FFFFFF" points="174.596,290.413 174.596,313.541 174.596,327.56 174.596,327.652 264.423,327.652 264.423,327.652 
		264.543,327.652 265.29,319.282 266.986,300.404 267.877,290.413 	"/>
</g>
</svg>
