<?xml version="1.0" encoding="utf-8"?>
<!-- Generator: Adobe Illustrator 16.0.0, SVG Export Plug-In . SVG Version: 6.00 Build 0)  -->
<!DOCTYPE svg PUBLIC "-//W3C//DTD SVG 1.1//EN" "http://www.w3.org/Graphics/SVG/1.1/DTD/svg11.dtd">
<svg version="1.1" id="Layer_1" xmlns="http://www.w3.org/2000/svg" xmlns:xlink="http://www.w3.org/1999/xlink" x="0px" y="0px"
	 width="861.324px" height="945.086px" viewBox="294.372 160.457 861.324 945.086"
	 enable-background="new 294.372 160.457 861.324 945.086" xml:space="preserve">
<g id="Layer_1_1_">
	<path fill="#81C365" d="M472.562,185.722c94-24,189.428-28.052,246.634-23.774c31.524,0,54.565,0.053,77.604-0.012
		c31.602-0.088,62.352,5.588,93.441,10.753c24.098,4.001,48.301,7.392,71.945,13.485c44.562,11.476,87.105,27.183,126.143,52.938
		c21.312,14.062,35.619,32.189,42.602,54.7c9.789,31.578,15.906,64.148,19.988,97.372c4.268,34.733,5.072,69.226,4.695,103.9
		c-0.658,60.111-12.162,118.689-25.666,177.045c-13.396,57.951-39.234,110.822-71.641,159.283
		c-40.193,60.094-87.564,114.629-144.609,160.779c-50.734,41.045-104.818,75.865-162.156,106.451
		c-18.545,9.889-34.162,8.549-52.772-0.207c-56.271-26.459-109.194-58.836-156.279-98.623
		c-84.283-71.223-156.203-153.248-199.368-256.941c-16.104-38.682-26.895-78.861-35.909-119.79
		c-16.665-75.695-13.341-152.313-10.547-228.572c1.445-39.54,12.075-78.593,27.973-115.794c8.24-19.279,55.76-55.457,73.922-64.994
		L472.562,185.722z"/>
	<path fill="#41301F" d="M458.562,257.722c31.578-6.781,133.455-20.009,165.277-24.786c49.77-7.468,99.397-5.506,148.869-4.102
		c71.293,2.027,142.178,10.583,209.893,35.368c21.801,7.979,43.729,15.096,63.451,28.898c11.545,8.079,18.18,15.9,21.576,29.157
		c7.744,30.268,16.117,60.2,16.518,91.89c0.211,16.553,6.021,33.223,4.965,49.56c-4.312,66.258-8.812,132.069-27.93,196.925
		c-17.445,59.166-43.328,112.332-80.289,160.809c-14.92,19.562-29.398,39.67-46.182,57.551
		c-60.533,64.502-129.871,117.422-211.42,155.264c-52.319-22.77-98.389-53.277-139.491-89.133
		c-69.55-60.678-133.069-127.775-171.758-213.455c-17.91-39.662-29.943-81.582-38.793-124.591
		c-12.507-60.774-13.297-121.979-10.991-183.296c1.39-36.955,9.687-73.31,19.447-109.019c2.82-10.318,28.459-35.051,38.857-41.038
		L458.562,257.722z"/>
</g>
<g id="Layer_2">
	<g>
		<path fill="#FFFFFF" d="M734.719,964.684l-18.472-6.312c0,0,2.256-94.17-31.544-100.928
			c-22.523-26.139,3.613-1108.463,84.718-3.607c0,0-27.939,13.965-32.896,37.852C731.115,915.119,734.719,964.684,734.719,964.684
			L734.719,964.684z"/>
		<path fill="#A6A385" d="M734.719,964.684l-18.472-6.312c0,0,2.256-94.17-31.544-100.928
			c-22.523-26.139,3.613-1108.463,84.718-3.607c0,0-27.939,13.965-32.896,37.852C731.115,915.119,734.719,964.684,734.719,964.684
			L734.719,964.684z"/>
		<path fill="#FFFFFF" d="M744.636,873.664c0,0,161.768-106.344,123.912-327.59C832.054,385.221,745.987,332.5,736.526,312.222
			c-10.361-14.419-20.279-39.648-20.279-39.648l6.764,447.432c0,0.455-13.971,136.982,21.631,153.662"/>
		<path fill="#499D4A" d="M744.636,873.664c0,0,161.768-106.344,123.912-327.59C832.054,385.221,745.987,332.5,736.526,312.222
			c-10.361-14.419-20.279-39.648-20.279-39.648l6.764,447.432c0,0.455-13.971,136.982,21.631,153.662"/>
		<path fill="#FFFFFF" d="M706.79,879.518c0,0-151.855-103.637-142.843-286.123c8.561-182.49,115.802-272.158,136.528-288.379
			c13.521-14.419,13.97-19.829,14.873-34.248c9.463,20.278,7.661,303.252,9.009,336.592
			C728.41,735.777,717.15,855.191,706.79,879.518z"/>
		<path fill="#58AA50" d="M706.79,879.518c0,0-151.855-103.637-142.843-286.123c8.561-182.49,115.802-272.158,136.528-288.379
			c13.521-14.419,13.97-19.829,14.873-34.248c9.463,20.278,7.661,303.252,9.009,336.592
			C728.41,735.777,717.15,855.191,706.79,879.518z"/>
	</g>
</g>
</svg>
