<?xml version="1.0" encoding="utf-8"?>
<!-- Generator: Adobe Illustrator 16.0.0, SVG Export Plug-In . SVG Version: 6.00 Build 0)  -->
<!DOCTYPE svg PUBLIC "-//W3C//DTD SVG 1.1//EN" "http://www.w3.org/Graphics/SVG/1.1/DTD/svg11.dtd">
<svg version="1.1" id="Layer_1" xmlns:sketch="http://www.bohemiancoding.com/sketch/ns"
	 xmlns="http://www.w3.org/2000/svg" xmlns:xlink="http://www.w3.org/1999/xlink" x="0px" y="0px" width="561.802px"
	 height="499.803px" viewBox="0.628 5.198 561.802 499.803" enable-background="new 0.628 5.198 561.802 499.803"
	 xml:space="preserve">
<title>react-logo</title>
<desc>Created with Sketch.</desc>
<g id="Page-1" sketch:type="MSPage">
	<g id="logo-_x28_1_x29_" transform="translate(12.000000, 17.000000)" sketch:type="MSLayerGroup">
		<circle id="Oval" sketch:type="MSShapeGroup" fill="#00D8FF" cx="269.529" cy="237.628" r="50.167">
		</circle>
		<path id="Shape" sketch:type="MSShapeGroup" fill="none" stroke="#00D8FF" stroke-width="24" d="M269.529,135.628
			c67.356,0,129.928,9.665,177.107,25.907c56.845,19.569,91.794,49.233,91.794,76.093c0,27.991-37.041,59.503-98.083,79.729
			c-46.15,15.291-106.879,23.271-170.818,23.271c-65.554,0-127.63-7.492-174.29-23.44c-59.046-20.183-94.611-52.104-94.611-79.56
			c0-26.642,33.37-56.076,89.415-75.616C137.398,145.503,201.515,135.628,269.529,135.628L269.529,135.628z"/>
		<path id="Shape_1_" sketch:type="MSShapeGroup" fill="none" stroke="#00D8FF" stroke-width="24" d="M180.736,186.922
			c33.649-58.348,73.281-107.724,110.92-140.48c45.35-39.466,88.507-54.923,111.774-41.505
			c24.248,13.983,33.042,61.814,20.067,124.796c-9.811,47.618-33.234,104.212-65.176,159.601
			c-32.749,56.788-70.25,106.819-107.377,139.272c-46.981,41.067-92.4,55.929-116.185,42.213
			c-23.079-13.311-31.906-56.921-20.834-115.233C123.281,306.316,146.758,245.841,180.736,186.922L180.736,186.922z"/>
		<path id="Shape_2_" sketch:type="MSShapeGroup" fill="none" stroke="#00D8FF" stroke-width="24" d="M180.821,289.482
			c-33.746-58.292-56.731-117.288-66.312-166.255c-11.544-58.999-3.382-104.109,19.864-117.566
			c24.224-14.024,70.055,2.244,118.14,44.94c36.356,32.28,73.688,80.837,105.723,136.173
			c32.844,56.733,57.461,114.209,67.036,162.583c12.117,61.213,2.31,107.983-21.452,121.739
			c-23.058,13.349-65.25-0.783-110.239-39.499C255.567,398.886,214.898,348.344,180.821,289.482L180.821,289.482z"/>
	</g>
</g>
</svg>
