<svg height="512pt" viewBox="0 0 512 511" width="512pt" xmlns="http://www.w3.org/2000/svg"><path d="m480.90625 286.382812c0-60.074218-23.394531-116.554687-65.875-159.035156-1.464844-1.464844-2.953125-2.902344-4.453125-4.328125l35.953125-35.953125c5.871094 2.816406 12.445312 4.394532 19.382812 4.394532 11.945313 0 23.335938-4.59375 32.0625-12.9375 8.972657-8.578126 13.917969-19.957032 13.917969-32.042969 0-24.925781-21.058593-45.980469-45.980469-45.980469-12.085937 0-23.464843 4.941406-32.042968 13.914062-8.347656 8.730469-12.941406 20.117188-12.941406 32.066407 0 6.9375 1.582031 13.511719 4.398437 19.382812l-37.9375 37.9375c-38.023437-27.480469-83.5625-42.324219-131.390625-42.324219-47.867188 0-93.445312 14.867188-131.484375 42.390626l-38.792969-38.113282c2.78125-5.84375 4.347656-12.378906 4.347656-19.273437 0-11.949219-4.597656-23.335938-12.941406-32.066407-8.578125-8.96875-19.957031-13.914062-32.042968-13.914062-12.082032 0-23.460938 4.945312-32.039063 13.917969-8.34375 8.726562-12.941406 20.113281-12.941406 32.0625 0 24.804687 20.179687 44.984375 44.980469 44.984375 6.976562 0 13.589843-1.597656 19.488281-4.445313l36.742187 36.097657c-1.464844 1.390624-2.917968 2.796874-4.351562 4.230468-42.476563 42.480469-65.871094 98.960938-65.871094 159.035156 0 49.035157 15.644531 94.46875 42.171875 131.542969l-73.265625 73.265625 21.203125 21.203125 71.183594-71.179687c41.039062 43.730468 99.203125 71.074218 163.613281 71.074218s122.574219-27.347656 163.617188-71.074218l71.179687 71.179687 21.203125-21.203125-73.265625-73.265625c26.527344-37.074219 42.171875-82.507812 42.171875-131.542969zm-14.992188-255.894531c8.21875 0 15.992188 7.773438 15.992188 15.992188 0 7.988281-7.476562 14.996093-15.992188 14.996093-8.269531 0-14.996093-6.726562-14.996093-14.996093 0-8.519531 7.007812-15.992188 14.996093-15.992188zm-420.828124 30.988281c-8.265626 0-14.992188-6.726562-14.992188-14.996093 0-8.519531 7.003906-15.992188 14.992188-15.992188 7.988281 0 14.996093 7.472657 14.996093 15.992188 0 8.269531-6.726562 14.996093-14.996093 14.996093zm405.832031 224.90625c0 14.402344-1.566407 28.445313-4.519531 41.972657l-56.960938-56.96875h60.910156c.378906 4.949219.570313 9.953125.570313 14.996093zm-5.246094-44.980468h-86.222656l-29.988281-29.988282h106.457031c4.027343 9.628907 7.300781 19.648438 9.753906 29.988282zm-9.332031 119.296875c-4.015625 9.804687-8.792969 19.207031-14.265625 28.140625l-268.332031-268.328125c8.902343-5.507813 18.277343-10.320313 28.050781-14.359375zm-16.15625-179.273438h-120.710938l-29.988281-29.988281h127.03125c8.824219 9.183594 16.765625 19.222656 23.667969 29.988281zm-60.421875-59.976562h-120.261719l-25.433594-25.429688c13.515625-2.972656 27.542969-4.554687 41.933594-4.554687 38.109375 0 73.695312 11.003906 103.761719 29.984375zm-244.945313 299.875c-8.703125-9.191407-16.523437-19.234375-23.335937-29.984375h121.046875l29.984375 29.984375zm-53.734375-134.941407c0-14.394531 1.582031-28.421874 4.554688-41.933593l56.925781 56.925781h-60.917969c-.371093-4.949219-.5625-9.949219-.5625-14.992188zm91.46875 44.980469 29.988281 29.988281h-106.613281c-3.984375-9.636718-7.226562-19.65625-9.652343-29.988281zm-76.78125-119.1875c4.042969-9.773437 8.851563-19.148437 14.359375-28.050781l268.652344 268.652344c-8.859375 5.546875-18.191406 10.40625-27.921875 14.488281zm75.128907 239.136719h121.601562l26.230469 26.234375c-13.757813 3.101563-28.054688 4.753906-42.730469 4.753906-38.675781 0-74.757812-11.382812-105.101562-30.988281zm232.261718-16.566406-275.113281-275.113282c6.515625-7.597656 13.605469-14.6875 21.203125-21.207031l275 275.003907c-6.480469 7.632812-13.53125 14.761718-21.089844 21.316406zm0 0"/></svg>